HIERARCHY
ROOT Hips
{
	OFFSET 0.000000 71.427986 0.000000
	CHANNELS 6 Xposition Yposition Zposition Xrotation Yrotation Zrotation
	JOINT Pelvis
	{
		OFFSET 0.000000 0.000000 0.000000
		CHANNELS 3 Xrotation Yrotation Zrotation
		JOINT LeftUpLeg
		{
			OFFSET 6.797100 -2.508499 -1.318700
			CHANNELS 3 Xrotation Yrotation Zrotation
			JOINT LeftLeg
			{
				OFFSET 0.069008 -29.241863 0.690200
				CHANNELS 3 Xrotation Yrotation Zrotation
				JOINT LeftFoot
				{
					OFFSET -0.069008 -29.568123 -0.266800
					CHANNELS 3 Xrotation Yrotation Zrotation
					JOINT LeftToeBase
					{
						OFFSET 3.145500 -8.631000 16.059900
						CHANNELS 3 Xrotation Yrotation Zrotation
						End Site
						{
							OFFSET 0.000000 18.501587 0.000000
						}
					}
				}
			}
			JOINT Left_ShortSleeve
			{
				OFFSET 0.265923 -10.480953 1.153800
				CHANNELS 3 Xrotation Yrotation Zrotation
				End Site
				{
					OFFSET 1.725763 19.823879 0.000000
				}
			}
		}
		JOINT RightUpLeg
		{
			OFFSET -6.797100 -2.508499 -1.318700
			CHANNELS 3 Xrotation Yrotation Zrotation
			JOINT RightLeg
			{
				OFFSET -0.082453 -29.241932 0.688000
				CHANNELS 3 Xrotation Yrotation Zrotation
				JOINT RightFoot
				{
					OFFSET 0.082453 -29.568058 -0.264600
					CHANNELS 3 Xrotation Yrotation Zrotation
					JOINT RightToeBase
					{
						OFFSET -3.115300 -8.682800 16.113400
						CHANNELS 3 Xrotation Yrotation Zrotation
						End Site
						{
							OFFSET 0.000000 18.567114 0.000000
						}
					}
				}
			}
			JOINT Right_ShortSleeve
			{
				OFFSET -0.265923 -10.480953 1.153800
				CHANNELS 3 Xrotation Yrotation Zrotation
				End Site
				{
					OFFSET -1.725766 19.823910 0.000000
				}
			}
		}
	}
	JOINT Spine
	{
		OFFSET 0.000000 13.368103 0.470500
		CHANNELS 3 Xrotation Yrotation Zrotation
		JOINT Spine1
		{
			OFFSET 0.147000 13.837402 0.538800
			CHANNELS 3 Xrotation Yrotation Zrotation
			JOINT Spine2
			{
				OFFSET 0.168000 16.242897 -1.435500
				CHANNELS 3 Xrotation Yrotation Zrotation
				JOINT Neck
				{
					OFFSET 0.217200 18.631500 -1.679100
					CHANNELS 3 Xrotation Yrotation Zrotation
					JOINT Head
					{
						OFFSET 0.000000 6.599396 1.385900
						CHANNELS 3 Xrotation Yrotation Zrotation
						JOINT Hat
						{
							OFFSET -0.532200 27.220596 -10.096100
							CHANNELS 3 Xrotation Yrotation Zrotation
							End Site
							{
								OFFSET 0.000000 22.029861 0.000000
							}
						}
						JOINT HairD
						{
							OFFSET -10.777400 17.437393 -1.325900
							CHANNELS 3 Xrotation Yrotation Zrotation
							JOINT HairD1
							{
								OFFSET -3.290299 -11.051193 1.062200
								CHANNELS 3 Xrotation Yrotation Zrotation
								End Site
								{
									OFFSET 0.000000 11.579437 0.000000
								}
							}
						}
						JOINT HairB
						{
							OFFSET -10.777400 17.437393 1.467900
							CHANNELS 3 Xrotation Yrotation Zrotation
							JOINT HairB1
							{
								OFFSET -1.561200 -12.956299 3.590200
								CHANNELS 3 Xrotation Yrotation Zrotation
								End Site
								{
									OFFSET 0.000000 13.534866 0.000000
								}
							}
						}
						JOINT HairA
						{
							OFFSET 9.713100 17.437393 1.467900
							CHANNELS 3 Xrotation Yrotation Zrotation
							JOINT HairA1
							{
								OFFSET 1.561200 -12.956299 3.590200
								CHANNELS 3 Xrotation Yrotation Zrotation
								End Site
								{
									OFFSET 0.000000 13.534866 0.000000
								}
							}
						}
						JOINT HairC
						{
							OFFSET 9.713100 17.437393 -1.325900
							CHANNELS 3 Xrotation Yrotation Zrotation
							JOINT HairC1
							{
								OFFSET 3.290300 -11.051193 1.062200
								CHANNELS 3 Xrotation Yrotation Zrotation
								End Site
								{
									OFFSET 0.000000 11.579437 0.000000
								}
							}
						}
					}
				}
				JOINT LeftShoulder
				{
					OFFSET 5.101800 15.108002 -2.763700
					CHANNELS 3 Xrotation Yrotation Zrotation
					JOINT LeftArm
					{
						OFFSET 9.825497 2.506317 -1.597400
						CHANNELS 3 Xrotation Yrotation Zrotation
						JOINT LeftForeArm
						{
							OFFSET 21.966244 0.000000 0.000000
							CHANNELS 3 Xrotation Yrotation Zrotation
							JOINT LeftHand
							{
								OFFSET 33.879036 0.000000 0.000000
								CHANNELS 3 Xrotation Yrotation Zrotation
								JOINT LeftHandThumb1
								{
									OFFSET 6.715286 -2.359680 3.363841
									CHANNELS 3 Xrotation Yrotation Zrotation
									JOINT LeftHandThumb2
									{
										OFFSET 2.507072 -1.447464 1.447461
										CHANNELS 3 Xrotation Yrotation Zrotation
										JOINT LeftHandThumb3
										{
											OFFSET 2.898338 -1.673355 1.673357
											CHANNELS 3 Xrotation Yrotation Zrotation
											End Site
											{
												OFFSET -0.295959 3.727692 -0.131651
											}
										}
									}
								}
								JOINT LeftHandIndex1
								{
									OFFSET 14.190811 -0.254547 3.840278
									CHANNELS 3 Xrotation Yrotation Zrotation
									JOINT LeftHandIndex2
									{
										OFFSET 3.551727 0.000000 -0.000000
										CHANNELS 3 Xrotation Yrotation Zrotation
										JOINT LeftHandIndex3
										{
											OFFSET 2.894196 0.000000 0.000000
											CHANNELS 3 Xrotation Yrotation Zrotation
											End Site
											{
												OFFSET -1.000603 2.690872 0.366626
											}
										}
									}
								}
								JOINT LeftHandMiddle1
								{
									OFFSET 13.776489 0.000000 0.000000
									CHANNELS 3 Xrotation Yrotation Zrotation
									JOINT LeftHandMiddle2
									{
										OFFSET 3.438232 0.000000 0.000000
										CHANNELS 3 Xrotation Yrotation Zrotation
										JOINT LeftHandMiddle3
										{
											OFFSET 3.691551 0.000000 0.000000
											CHANNELS 3 Xrotation Yrotation Zrotation
											End Site
											{
												OFFSET -1.082298 3.499527 0.457670
											}
										}
									}
								}
								JOINT LeftHandRing1
								{
									OFFSET 13.966164 -0.268127 -3.067488
									CHANNELS 3 Xrotation Yrotation Zrotation
									JOINT LeftHandRing2
									{
										OFFSET 3.162567 0.000000 0.000000
										CHANNELS 3 Xrotation Yrotation Zrotation
										JOINT LeftHandRing3
										{
											OFFSET 3.324348 0.000000 0.000000
											CHANNELS 3 Xrotation Yrotation Zrotation
											End Site
											{
												OFFSET -0.861900 3.184998 0.405154
											}
										}
									}
								}
								JOINT LeftHandPinky1
								{
									OFFSET 13.131393 -0.168503 -5.746925
									CHANNELS 3 Xrotation Yrotation Zrotation
									JOINT LeftHandPinky2
									{
										OFFSET 2.849182 0.000000 0.000000
										CHANNELS 3 Xrotation Yrotation Zrotation
										JOINT LeftHandPinky3
										{
											OFFSET 2.805038 0.000000 0.000000
											CHANNELS 3 Xrotation Yrotation Zrotation
											End Site
											{
												OFFSET -0.882500 2.642609 0.325652
											}
										}
									}
								}
							}
							JOINT Left_Sleeve
							{
								OFFSET 6.592125 -0.646545 0.805568
								CHANNELS 3 Xrotation Yrotation Zrotation
								End Site
								{
									OFFSET -0.000179 20.275787 -0.000000
								}
							}
						}
					}
				}
				JOINT RightShoulder
				{
					OFFSET -5.731700 15.108002 -2.763700
					CHANNELS 3 Xrotation Yrotation Zrotation
					JOINT RightArm
					{
						OFFSET -9.825497 2.506317 -1.597400
						CHANNELS 3 Xrotation Yrotation Zrotation
						JOINT RightForeArm
						{
							OFFSET -21.966242 0.000000 0.000000
							CHANNELS 3 Xrotation Yrotation Zrotation
							JOINT RightHand
							{
								OFFSET -33.879032 0.000000 0.000000
								CHANNELS 3 Xrotation Yrotation Zrotation
								JOINT RightHandThumb1
								{
									OFFSET -6.715286 -2.359680 3.363841
									CHANNELS 3 Xrotation Yrotation Zrotation
									JOINT RightHandThumb2
									{
										OFFSET -2.507072 -1.447464 1.447461
										CHANNELS 3 Xrotation Yrotation Zrotation
										JOINT RightHandThumb3
										{
											OFFSET -2.898338 -1.673355 1.673357
											CHANNELS 3 Xrotation Yrotation Zrotation
											End Site
											{
												OFFSET 0.295959 3.727692 -0.131651
											}
										}
									}
								}
								JOINT RightHandIndex1
								{
									OFFSET -14.190811 -0.254547 3.840278
									CHANNELS 3 Xrotation Yrotation Zrotation
									JOINT RightHandIndex2
									{
										OFFSET -3.551727 0.000000 -0.000000
										CHANNELS 3 Xrotation Yrotation Zrotation
										JOINT RightHandIndex3
										{
											OFFSET -2.894196 0.000000 0.000000
											CHANNELS 3 Xrotation Yrotation Zrotation
											End Site
											{
												OFFSET 1.000603 2.690872 0.366626
											}
										}
									}
								}
								JOINT RightHandMiddle1
								{
									OFFSET -13.776489 0.000000 0.000000
									CHANNELS 3 Xrotation Yrotation Zrotation
									JOINT RightHandMiddle2
									{
										OFFSET -3.438232 0.000000 0.000000
										CHANNELS 3 Xrotation Yrotation Zrotation
										JOINT RightHandMiddle3
										{
											OFFSET -3.691551 0.000000 0.000000
											CHANNELS 3 Xrotation Yrotation Zrotation
											End Site
											{
												OFFSET 1.082298 3.499527 0.457670
											}
										}
									}
								}
								JOINT RightHandRing1
								{
									OFFSET -13.966164 -0.268127 -3.067488
									CHANNELS 3 Xrotation Yrotation Zrotation
									JOINT RightHandRing2
									{
										OFFSET -3.162567 0.000000 0.000000
										CHANNELS 3 Xrotation Yrotation Zrotation
										JOINT RightHandRing3
										{
											OFFSET -3.324348 0.000000 0.000000
											CHANNELS 3 Xrotation Yrotation Zrotation
											End Site
											{
												OFFSET 0.861900 3.184998 0.405154
											}
										}
									}
								}
								JOINT RightHandPinky1
								{
									OFFSET -13.131393 -0.168503 -5.746925
									CHANNELS 3 Xrotation Yrotation Zrotation
									JOINT RightHandPinky2
									{
										OFFSET -2.849182 0.000000 0.000000
										CHANNELS 3 Xrotation Yrotation Zrotation
										JOINT RightHandPinky3
										{
											OFFSET -2.805038 0.000000 0.000000
											CHANNELS 3 Xrotation Yrotation Zrotation
											End Site
											{
												OFFSET 0.882500 2.642609 0.325652
											}
										}
									}
								}
							}
							JOINT Right_Sleeve
							{
								OFFSET -6.592125 -0.646545 0.805568
								CHANNELS 3 Xrotation Yrotation Zrotation
								End Site
								{
									OFFSET 0.000179 20.275787 -0.000000
								}
							}
						}
					}
				}
				JOINT Bind_Right_JacketString
				{
					OFFSET -3.534800 11.969597 7.200700
					CHANNELS 3 Xrotation Yrotation Zrotation
					JOINT Bind_Right_JacketString1
					{
						OFFSET -0.319900 -6.102600 2.794100
						CHANNELS 3 Xrotation Yrotation Zrotation
						End Site
						{
							OFFSET 0.000000 6.719452 0.000000
						}
					}
				}
				JOINT Bind_Left_JacketString
				{
					OFFSET 2.904800 11.969597 7.200700
					CHANNELS 3 Xrotation Yrotation Zrotation
					JOINT Bind_Left_JacketString1
					{
						OFFSET 0.364800 -5.904503 3.186800
						CHANNELS 3 Xrotation Yrotation Zrotation
						End Site
						{
							OFFSET 0.000000 6.719513 0.000000
						}
					}
				}
				JOINT HairE
				{
					OFFSET 5.915200 17.612701 -11.592200
					CHANNELS 3 Xrotation Yrotation Zrotation
					JOINT HairE1
					{
						OFFSET 0.289200 -7.171898 -1.284500
						CHANNELS 3 Xrotation Yrotation Zrotation
						End Site
						{
							OFFSET 0.000000 7.291756 0.000000
						}
					}
				}
				JOINT HairF
				{
					OFFSET -0.864800 17.612701 -11.592200
					CHANNELS 3 Xrotation Yrotation Zrotation
					JOINT HairF1
					{
						OFFSET 0.000000 -14.087097 -2.127501
						CHANNELS 3 Xrotation Yrotation Zrotation
						End Site
						{
							OFFSET 0.000000 14.246841 0.000000
						}
					}
				}
				JOINT HairG
				{
					OFFSET -8.087700 17.612701 -11.592200
					CHANNELS 3 Xrotation Yrotation Zrotation
					JOINT HairG1
					{
						OFFSET -0.293600 -6.081398 -0.910100
						CHANNELS 3 Xrotation Yrotation Zrotation
						End Site
						{
							OFFSET 0.000000 6.156120 0.000000
						}
					}
				}
			}
		}
	}
	JOINT Pouch
	{
		OFFSET 0.000000 4.394501 10.847300
		CHANNELS 3 Xrotation Yrotation Zrotation
		End Site
		{
			OFFSET 0.000000 21.880577 0.000000
		}
	}
	JOINT Bag
	{
		OFFSET -13.229000 4.813004 -0.593300
		CHANNELS 3 Xrotation Yrotation Zrotation
		End Site
		{
			OFFSET 0.000000 21.880577 0.000000
		}
	}
	JOINT OccupyGuyFacialAnim_Joint
	{
		OFFSET 1.000000 -70.206398 -1.655000
		CHANNELS 3 Xrotation Yrotation Zrotation
		End Site
		{
			OFFSET 0.000000 21.880577 0.000000
		}
	}
}
MOTION
Frames: 4
Frame Time: 0.033333
5.231256 69.567314 -13.416977 -16.513352 -22.062705 340.689125 0.000001 0.000000 -0.000000 -4.522873 9.189550 9.228703 42.882783 -6.076113 8.075678 -23.956506 -10.390533 9.415936 0.000000 -0.000002 0.000001 -0.000001 -0.000001 -0.000001 -34.907922 -8.905374 3.808487 73.209342 -9.721851 9.926692 -0.647169 -10.823465 3.639865 -0.000000 -0.000002 0.000001 -0.000003 0.000000 -0.000001 18.801069 -26.979490 -6.543617 3.328221 -3.709303 5.427330 3.653319 -3.474515 5.375373 2.097450 -3.170627 -1.442499 16.022644 -18.281925 8.059666 0.000001 0.000000 -0.000001 0.000001 0.000000 -0.000001 0.000001 0.000000 -0.000000 0.000001 0.000000 0.000000 0.000001 0.000000 0.000000 0.000001 0.000000 0.000000 0.000001 0.000000 0.000000 0.000001 0.000000 -0.000001 0.000001 0.000000 -0.000001 1.161603 -9.668235 -3.848977 -44.693725 -23.972263 -59.154882 0.000003 -62.719763 -0.000004 56.965543 -4.988472 10.827685 -4.348543 14.905220 17.197701 4.414044 13.670000 1.181196 -0.000001 -0.000000 -0.000001 0.026741 0.607507 -5.040702 0.390257 2.289327 -19.345814 0.000003 -0.000000 -0.000000 0.029182 0.634607 -5.266194 0.375752 2.247606 -18.979217 0.000000 0.000001 0.000001 0.093697 1.134328 -9.443420 0.468804 2.501658 -21.224890 -0.000001 0.000000 0.000001 1.618026 6.029848 -17.942381 0.607994 -1.240132 -24.551436 -0.000001 -0.000001 0.000003 -0.000001 -0.000002 -0.000000 0.032141 -4.156153 1.585917 29.716637 -18.100905 58.132020 0.000005 22.656651 -0.000002 42.598531 -18.407145 27.414156 -2.121688 -18.237886 -8.377433 5.377174 -16.885023 -0.789925 0.000001 -0.000001 0.000002 0.389100 -2.297527 19.221261 0.356083 -2.200709 18.380823 0.000001 0.000003 -0.000001 0.318765 -2.085069 17.382222 0.419330 -2.382422 19.962036 0.000002 0.000004 -0.000004 0.404120 -2.340128 19.592599 0.535316 -2.680053 22.588081 0.000002 0.000001 -0.000002 0.722235 -3.090719 26.299717 0.677534 -2.998709 25.458207 0.000002 0.000003 -0.000003 0.000003 0.000000 -0.000001 -0.000000 0.000001 0.000000 -0.000000 0.000003 -0.000001 -0.000000 0.000001 -0.000001 -0.000000 0.000001 -0.000001 -0.000000 0.000001 0.000000 -0.000000 0.000003 -0.000001 -0.000000 0.000001 -0.000001 -0.000000 0.000001 -0.000001 -0.000000 0.000001 0.000000 -0.000000 0.000003 -0.000001 0.000001 0.000000 -0.000000 0.000001 0.000000 -0.000000 0.000001 0.000000 -0.000000 
4.307030 69.219681 -13.902319 -17.570216 -22.581486 339.701617 -0.000001 -0.000002 -0.000000 -4.922509 14.604462 11.550653 43.807819 -6.470554 6.705073 -25.439980 -2.807286 9.871650 -0.000000 -0.000004 0.000000 0.000002 0.000000 -0.000000 -35.683015 -16.576895 4.357431 73.070047 -8.644747 9.899162 1.795297 -10.745966 14.501870 -0.000001 0.000001 0.000000 0.000001 0.000000 -0.000000 19.585187 -25.807801 -6.033081 3.162607 -3.554950 5.138114 3.458297 -3.326648 5.101948 2.650167 -3.078583 -1.289583 16.507421 -17.614419 7.569388 -0.000001 -0.000000 -0.000001 -0.000001 -0.000000 -0.000001 -0.000001 -0.000000 -0.000000 -0.000001 -0.000000 -0.000000 -0.000001 0.000001 0.000001 -0.000001 -0.000000 -0.000000 -0.000001 0.000001 0.000001 -0.000001 -0.000000 -0.000001 -0.000001 -0.000000 -0.000001 1.148665 -9.279811 -3.494805 -45.188299 -22.732934 -61.926381 0.000024 -60.546362 0.000023 55.449576 -4.559429 10.032045 -4.348540 14.905218 17.197692 4.414047 13.669995 1.181192 -0.000002 0.000001 -0.000002 0.024136 0.577179 -4.788460 0.385228 2.274963 -19.219492 0.000002 -0.000001 0.000003 0.026458 0.604290 -5.013953 0.370811 2.233208 -18.852912 0.000001 0.000000 -0.000001 0.088766 1.104291 -9.191103 0.463306 2.487462 -21.098543 -0.000001 0.000000 -0.000001 1.591353 6.006479 -17.688016 0.601689 -1.253974 -24.425463 -0.000001 -0.000000 0.000001 -0.000000 0.000001 0.000002 0.020630 -3.934256 1.064857 29.902630 -17.153986 57.522644 -0.000018 23.008781 0.000001 38.254032 -17.223896 23.055245 -2.121682 -18.237881 -8.377441 5.377174 -16.885025 -0.789927 -0.000000 -0.000001 0.000002 0.358923 -2.209148 18.453754 0.341518 -2.156358 17.997122 0.000001 0.000001 0.000004 0.296467 -2.012550 16.758774 0.401694 -2.333325 19.533257 -0.000003 -0.000003 0.000000 0.379047 -2.268502 18.968941 0.515418 -2.631817 22.159099 0.000001 -0.000002 -0.000001 0.681368 -3.006722 25.531220 0.657585 -2.956483 25.074017 -0.000000 0.000000 -0.000001 -0.000001 -0.000000 -0.000001 -0.000000 -0.000001 0.000001 0.000000 -0.000001 0.000000 -0.000000 -0.000001 0.000000 -0.000000 -0.000001 0.000000 -0.000000 -0.000001 0.000001 0.000000 -0.000001 0.000001 -0.000000 -0.000001 0.000000 -0.000000 -0.000001 0.000000 -0.000000 -0.000001 0.000001 0.000000 -0.000001 0.000001 -0.000001 -0.000002 -0.000000 -0.000001 -0.000002 -0.000000 -0.000001 -0.000002 -0.000000 
3.387819 68.485596 -14.258992 -19.439086 -23.672671 339.999358 -0.000000 -0.000001 -0.000000 -3.508991 14.822735 11.392884 44.610206 -0.226430 4.713144 -26.923007 -1.794877 5.329372 0.000000 -0.000001 0.000000 0.000001 -0.000001 -0.000000 -35.777767 -22.076561 3.646907 73.959385 -7.648962 9.870097 4.498313 -8.308030 25.205365 -0.000002 -0.000001 0.000000 -0.000001 -0.000002 -0.000002 19.977690 -24.585527 -7.608499 2.928060 -3.361666 4.857877 3.203299 -3.131292 4.839411 2.998645 -2.924454 -1.411102 17.352659 -17.036753 7.570064 -0.000000 0.000000 -0.000001 -0.000000 0.000000 -0.000001 -0.000000 0.000000 -0.000001 -0.000000 0.000000 -0.000000 -0.000000 -0.000000 -0.000000 -0.000000 0.000000 -0.000000 -0.000000 -0.000000 -0.000000 -0.000000 0.000000 -0.000001 -0.000000 0.000000 -0.000001 1.066706 -8.283436 -3.743240 -44.313294 -20.990001 -63.880225 -0.000032 -59.801817 -0.000020 53.687155 -4.215013 9.722985 -4.348542 14.905211 17.197697 4.414042 13.669996 1.181185 0.000005 0.000004 -0.000002 0.019039 0.512742 -4.252816 0.374652 2.244419 -18.951287 0.000001 0.000000 -0.000000 0.021112 0.539877 -4.478299 0.360436 2.202592 -18.584733 0.000002 0.000000 -0.000001 0.078745 1.040436 -8.655327 0.451734 2.457285 -20.830245 -0.000000 0.000000 -0.000001 1.535076 5.956473 -17.147914 0.588387 -1.283439 -24.157956 0.000000 0.000001 0.000001 0.000000 -0.000001 0.000003 0.094147 -3.261953 1.136638 28.448619 -15.860599 56.730896 0.000001 22.684503 -0.000005 33.166886 -15.869810 17.765071 -2.121709 -18.237865 -8.377475 5.377178 -16.885025 -0.789926 0.000001 -0.000001 -0.000001 0.306907 -2.046844 17.053362 0.315684 -2.075145 17.296940 -0.000001 0.000004 -0.000001 0.257837 -1.879552 15.621225 0.370459 -2.243416 18.750852 -0.000002 -0.000001 0.000001 0.335284 -2.137120 17.831001 0.480121 -2.543397 21.376329 0.000002 -0.000001 -0.000000 0.609691 -2.852052 24.129100 0.621894 -2.879088 24.372968 -0.000001 0.000002 0.000001 0.000001 0.000001 0.000001 0.000000 -0.000002 0.000000 0.000000 -0.000002 0.000000 0.000000 -0.000002 0.000000 0.000000 -0.000002 0.000000 0.000000 -0.000002 0.000000 0.000000 -0.000002 0.000000 0.000000 -0.000002 0.000000 0.000000 -0.000002 0.000000 0.000000 -0.000002 0.000000 0.000000 -0.000002 0.000000 -0.000000 -0.000001 -0.000000 -0.000000 -0.000001 -0.000000 -0.000000 -0.000001 -0.000000 
2.473215 67.499413 -14.529988 -21.727412 -25.351564 341.613168 -0.000000 -0.000001 -0.000000 -0.675107 10.682394 9.178011 46.119862 5.036377 1.321474 -27.997444 -0.571476 0.588016 -0.000000 0.000000 0.000000 0.000001 -0.000004 -0.000002 -36.154237 -24.364967 1.639635 75.435669 -6.889931 9.848753 6.542334 -3.818238 32.649540 -0.000002 -0.000001 0.000002 0.000002 0.000001 -0.000002 19.841131 -23.151218 -11.201713 2.743556 -3.102156 4.578613 3.002040 -2.864278 4.572087 2.998007 -2.792345 -1.673170 18.339490 -16.783204 8.288606 0.000000 0.000000 -0.000000 0.000000 0.000000 -0.000000 0.000000 0.000000 0.000000 0.000000 0.000000 -0.000000 0.000000 -0.000001 -0.000000 0.000000 0.000000 -0.000000 0.000000 -0.000001 -0.000000 0.000000 0.000000 -0.000000 0.000000 0.000000 -0.000000 0.968832 -7.038801 -4.109806 -42.303422 -18.775939 -64.826760 0.000097 -60.363545 0.000089 51.900388 -3.964624 9.723590 -4.348544 14.905213 17.197691 4.414046 13.669998 1.181196 0.000001 0.000002 0.000000 0.013605 0.433544 -3.594944 0.361858 2.206835 -18.621882 0.000001 -0.000001 -0.000000 0.015366 0.460698 -3.820442 0.347886 2.164942 -18.255335 0.000003 0.000000 -0.000004 0.067245 0.961890 -7.997301 0.437707 2.420139 -20.500746 -0.000002 -0.000001 -0.000001 1.466607 5.894351 -16.484704 0.572247 -1.319696 -23.829413 -0.000001 0.000000 0.000003 0.000000 0.000002 0.000001 0.178651 -2.898292 1.975896 25.043030 -14.043291 55.884481 0.000004 21.861115 -0.000004 27.094473 -14.185301 10.649293 -2.121689 -18.237886 -8.377441 5.377179 -16.885023 -0.789927 0.000003 0.000000 -0.000003 0.218391 -1.732294 14.369106 0.268894 -1.918592 15.954625 -0.000002 0.000002 -0.000001 0.191183 -1.622556 13.440591 0.314021 -2.069817 17.250968 0.000006 -0.000001 -0.000003 0.258782 -1.882880 15.649746 0.415753 -2.372575 19.875801 0.000004 -0.000001 -0.000002 0.483021 -2.550801 21.441784 0.556136 -2.729473 23.029084 0.000001 0.000002 0.000002 -0.000002 -0.000000 0.000003 -0.000000 -0.000001 0.000000 -0.000000 -0.000001 -0.000001 -0.000000 -0.000001 -0.000001 -0.000000 -0.000001 -0.000001 -0.000000 -0.000001 0.000000 -0.000000 -0.000001 -0.000001 -0.000000 -0.000001 -0.000001 -0.000000 -0.000001 -0.000001 -0.000000 -0.000001 0.000000 -0.000000 -0.000001 -0.000001 -0.000000 -0.000001 -0.000000 -0.000000 -0.000001 -0.000000 -0.000000 -0.000001 -0.000000 
